# xmcd
# 
# Track frame offsets:
#     150
#     13915
#     26986
#     43270
#     56966
#     69069
#     82707
#     97984
#     111848
#     122983
#     137269
#     152056
#     166029
#     188613
# 
# Disc length: 2781
# 
# Revision: 0
# Processed by: cddbd v1.5.2PL0 Copyright (c) Steve Scherf et al.
# Submitted via: fre:ac v1.0.17
# 
DISCID=ae0adb0e
DTITLE=Buddy Knox - Got Da Blues
DYEAR=2007
DGENRE=Blues
TTITLE0=Talkin' Woman Blues (Honey Hush)
TTITLE1=I'm Tore Down
TTITLE2=Original Aboriginal
TTITLE3=She's Sure Got A Away With My Heart
TTITLE4=Goin' Back To Louisiana
TTITLE5=Ain't No Big Deal On You
TTITLE6=Think
TTITLE7=She's Into Something
TTITLE8=Don't Let The Devil Ride
TTITLE9=Messin' With The Kid
TTITLE10=Rooster Blues
TTITLE11=Big Leg Woman (With A Short Mini Skirt)
TTITLE12=You Are My Sunshine
TTITLE13=Last Fair Deal Gone Down
EXTD=
EXTT0=
EXTT1=
EXTT2=
EXTT3=
EXTT4=
EXTT5=
EXTT6=
EXTT7=
EXTT8=
EXTT9=
EXTT10=
EXTT11=
EXTT12=
EXTT13=
PLAYORDER=
